<?xml version="1.0" standalone="no"?>
<!DOCTYPE svg PUBLIC "-//W3C//DTD SVG 20010904//EN"
 "http://www.w3.org/TR/2001/REC-SVG-20010904/DTD/svg10.dtd">
<svg version="1.0" xmlns="http://www.w3.org/2000/svg"
 width="500.000000pt" height="500.000000pt" viewBox="0 0 500.000000 500.000000"
 preserveAspectRatio="xMidYMid meet">
<metadata>
Created by potrace 1.14, written by Peter Selinger 2001-2017
</metadata>
<g transform="translate(0.000000,500.000000) scale(0.100000,-0.100000)"
fill="#000000" stroke="none">
<path d="M3124 4991 c3 -5 15 -7 26 -4 28 7 25 13 -6 13 -14 0 -23 -4 -20 -9z"/>
<path d="M4020 4990 c8 -5 26 -10 40 -10 20 0 22 2 10 10 -8 5 -26 10 -40 10
-20 0 -22 -2 -10 -10z"/>
<path d="M4778 4958 c52 -55 98 -113 164 -211 29 -43 54 -72 56 -64 7 31 -146
317 -170 317 -13 0 -10 -8 33 -81 23 -38 40 -72 37 -74 -2 -2 -23 20 -47 49
-43 55 -95 106 -108 106 -3 0 12 -19 35 -42z"/>
<path d="M2704 4964 c-18 -14 -18 -15 4 -4 12 6 22 13 22 15 0 8 -5 6 -26 -11z"/>
<path d="M4095 4973 c11 -11 105 -36 112 -30 2 3 -16 9 -40 16 -25 6 -53 14
-63 17 -13 5 -16 4 -9 -3z"/>
<path d="M2650 4929 c-54 -43 -67 -54 -117 -98 -29 -24 -51 -47 -48 -49 9 -9
76 30 72 41 -2 7 12 26 32 43 20 17 50 43 66 57 35 31 31 35 -5 6z"/>
<path d="M2900 4930 c-18 -12 -2 -12 25 0 13 6 15 9 5 9 -8 0 -22 -4 -30 -9z"/>
<path d="M4231 4926 c2 -2 33 -16 69 -31 121 -50 255 -123 303 -163 9 -8 17
-11 17 -6 0 17 -152 107 -262 155 -96 43 -142 59 -127 45z"/>
<path d="M2692 4871 c-104 -35 -140 -51 -116 -51 5 0 66 20 134 44 152 55 139
59 -18 7z"/>
<path d="M3714 4888 l-19 -23 23 19 c21 18 27 26 19 26 -2 0 -12 -10 -23 -22z"/>
<path d="M3505 4860 c3 -5 8 -10 11 -10 2 0 4 5 4 10 0 6 -5 10 -11 10 -5 0
-7 -4 -4 -10z"/>
<path d="M3555 4760 c3 -5 13 -10 21 -10 8 0 14 5 14 10 0 6 -9 10 -21 10 -11
0 -17 -4 -14 -10z"/>
<path d="M3650 4718 c-54 -67 -316 -333 -405 -411 -44 -38 -141 -129 -216
-201 -186 -179 -218 -209 -334 -303 -107 -87 -132 -109 -189 -162 -19 -19 -38
-32 -42 -29 -3 4 4 54 15 113 12 59 21 116 21 127 0 11 16 50 37 87 20 36 62
116 95 176 32 61 62 117 68 125 5 8 26 44 46 80 20 36 57 98 80 139 24 40 44
76 44 80 0 8 -70 -90 -81 -114 -5 -11 -21 -38 -34 -60 -14 -22 -28 -47 -32
-55 -3 -8 -16 -29 -29 -46 -23 -32 -62 -100 -114 -204 -17 -34 -33 -60 -36
-57 -6 6 39 210 101 457 17 64 18 81 5 60 -5 -9 -16 -47 -25 -85 -8 -39 -27
-106 -40 -150 -14 -44 -38 -138 -54 -210 -25 -113 -40 -187 -91 -475 -5 -30
-19 -116 -30 -190 -12 -74 -27 -169 -35 -210 -8 -41 -30 -172 -50 -290 -19
-118 -42 -253 -50 -300 -16 -86 -27 -162 -46 -305 -6 -44 -17 -123 -25 -175
-16 -107 -19 -205 -3 -115 5 28 13 84 19 125 32 244 109 729 169 1065 10 61
26 155 35 211 26 156 30 168 88 213 50 41 105 59 78 26 -11 -13 -10 -14 5 -9
14 6 16 3 11 -13 -15 -48 247 -373 288 -357 10 4 16 1 16 -8 0 -7 19 -43 43
-78 40 -62 44 -65 78 -62 33 3 40 -1 65 -38 56 -82 71 -96 85 -82 28 27 59 14
91 -38 33 -53 60 -63 66 -23 2 15 -5 27 -25 39 -108 66 -105 62 -99 123 6 55
6 55 -9 26 -8 -16 -14 -36 -15 -42 0 -26 -26 -15 -141 61 -71 46 -109 87 -109
116 0 15 -9 35 -19 44 -24 22 -32 63 -15 77 11 9 14 7 14 -10 0 -17 5 -22 23
-19 12 2 25 7 29 13 4 5 6 -10 4 -35 -3 -50 7 -70 35 -70 23 0 39 26 39 63 0
8 4 7 10 -3 9 -13 10 -13 10 0 0 13 2 13 9 0 6 -8 7 -27 4 -44 -4 -21 -3 -27
5 -22 19 12 13 85 -12 161 -4 11 1 7 10 -10 12 -20 18 -57 20 -109 2 -44 8
-84 13 -89 14 -14 31 33 32 91 0 37 2 43 10 27 7 -15 8 -10 6 23 -1 23 0 42 4
42 3 0 5 12 2 28 l-3 27 11 -25 c6 -14 19 -56 29 -94 22 -91 40 -98 40 -16 0
76 -23 169 -57 233 -15 26 -24 49 -21 52 8 8 163 -50 212 -79 22 -13 60 -41
84 -61 46 -40 122 -145 122 -169 0 -8 4 -17 9 -21 6 -3 13 21 17 55 6 57 22
77 39 50 12 -20 25 -9 25 20 0 17 -5 30 -12 30 -7 0 -23 16 -35 35 -21 32 -23
47 -23 172 0 144 -4 166 -13 70 -3 -32 -8 -61 -11 -64 -3 -4 -16 3 -29 14 -38
35 -101 70 -137 77 -29 5 -25 2 25 -24 33 -17 79 -47 103 -68 40 -35 43 -40
40 -80 l-3 -44 -43 31 c-113 83 -306 152 -475 171 -103 12 -383 15 -409 5 -36
-14 -16 16 45 66 78 65 186 164 319 291 60 58 68 60 160 48 195 -26 378 -71
415 -102 7 -6 13 -19 13 -30 0 -10 5 -16 10 -13 6 3 10 30 10 58 0 47 -2 52
-22 54 -13 0 -65 13 -116 27 -109 30 -229 45 -218 28 4 -7 28 -12 53 -12 26 0
60 -4 77 -9 17 -6 68 -20 114 -32 76 -20 101 -33 90 -45 -3 -2 -22 3 -42 11
-21 9 -88 27 -149 40 -62 14 -128 29 -147 35 -19 5 -61 12 -92 15 -35 4 -58
11 -57 18 0 7 43 48 96 92 103 86 374 352 419 410 19 25 29 32 35 24 5 -9 10
-4 14 14 12 47 0 49 -35 5z m-764 -1049 c32 -6 62 -13 66 -15 4 -3 -8 -19 -28
-36 -35 -31 -84 -114 -84 -143 0 -30 -16 -14 -49 48 -26 48 -60 135 -61 155 0
6 103 1 156 -9z m-256 -59 c0 -5 -2 -10 -4 -10 -3 0 -8 5 -11 10 -3 6 -1 10 4
10 6 0 11 -4 11 -10z m320 -80 c-20 -13 -33 -13 -25 0 3 6 14 10 23 10 15 0
15 -2 2 -10z m-40 -74 c0 -3 -4 -8 -10 -11 -5 -3 -10 -1 -10 4 0 6 5 11 10 11
6 0 10 -2 10 -4z m30 -16 c0 -5 -5 -10 -11 -10 -5 0 -7 5 -4 10 3 6 8 10 11
10 2 0 4 -4 4 -10z m124 -45 c5 -21 4 -24 -2 -11 -5 12 -11 16 -15 9 -8 -13
-47 -5 -47 8 0 12 17 11 25 -1 10 -17 27 1 21 23 -3 11 -1 16 4 11 5 -5 11
-22 14 -39z m86 10 c0 -14 -2 -25 -4 -25 -2 0 -6 11 -8 25 -3 14 -1 25 3 25 5
0 9 -11 9 -25z"/>
<path d="M4661 4694 c0 -5 40 -40 88 -78 49 -38 125 -104 170 -148 44 -44 81
-76 81 -70 0 12 -167 168 -255 238 -85 67 -85 67 -84 58z"/>
<path d="M3666 4658 c-11 -36 -14 -78 -7 -83 5 -3 11 18 13 45 3 49 1 62 -6
38z"/>
<path d="M470 4552 c-21 -42 -22 -42 -16 -42 8 0 38 61 33 66 -2 2 -10 -8 -17
-24z"/>
<path d="M3863 4491 c-7 -47 -11 -86 -9 -88 6 -6 28 134 24 154 -2 10 -9 -20
-15 -66z"/>
<path d="M430 4479 c-7 -11 -10 -23 -7 -25 2 -2 9 7 15 21 14 30 7 33 -8 4z"/>
<path d="M389 4398 c-12 -24 -15 -36 -7 -28 15 16 41 70 33 70 -3 0 -14 -19
-26 -42z"/>
<path d="M3847 4373 c-3 -5 -13 -65 -21 -133 -16 -123 -24 -171 -51 -300 -21
-96 -38 -211 -32 -216 2 -2 10 31 17 73 18 107 26 128 45 113 9 -7 15 -36 17
-78 2 -41 6 0 11 103 5 94 12 231 16 305 8 134 8 149 -2 133z m-17 -338 c0
-26 -16 -42 -22 -23 -7 19 3 58 13 52 5 -3 9 -16 9 -29z m-10 -81 c0 -8 -4
-14 -10 -14 -5 0 -10 9 -10 21 0 11 5 17 10 14 6 -3 10 -13 10 -21z"/>
<path d="M299 4228 c-34 -67 -69 -133 -78 -147 -9 -15 -11 -22 -3 -17 13 8 59
92 119 219 54 113 27 74 -38 -55z"/>
<path d="M4426 4263 c-3 -10 -12 -67 -21 -128 -18 -125 -86 -470 -116 -590
-24 -96 -93 -325 -115 -379 -8 -21 -13 -41 -10 -43 2 -2 7 6 11 19 4 13 22 55
39 93 18 39 45 117 61 175 27 100 54 161 41 95 -3 -16 -8 -93 -11 -170 -4 -77
-13 -203 -21 -280 -17 -167 -17 -162 -5 -150 13 13 38 291 51 565 11 208 22
293 70 545 5 28 14 87 19 132 6 45 13 93 17 107 7 29 -2 36 -10 9z"/>
<path d="M1407 4243 c-20 -71 -68 -375 -70 -442 l-1 -34 -33 39 c-18 22 -33
42 -33 46 0 17 -101 58 -137 57 l-38 -2 42 -6 c82 -14 178 -112 193 -199 4
-26 8 -38 9 -27 2 27 47 356 65 480 14 91 15 133 3 88z"/>
<path d="M176 4001 c-15 -28 -24 -51 -22 -51 8 0 58 92 53 97 -3 3 -17 -18
-31 -46z"/>
<path d="M130 3925 c-7 -9 -11 -17 -9 -20 3 -2 10 5 17 15 14 24 10 26 -8 5z"/>
<path d="M1034 3868 c-35 -37 -63 -80 -81 -120 -21 -49 1 -30 27 22 13 28 41
68 62 90 21 22 35 40 30 40 -4 0 -22 -15 -38 -32z"/>
<path d="M77 3848 c-14 -24 -37 -54 -51 -67 -14 -14 -26 -31 -26 -40 0 -9 13
0 33 24 36 43 80 116 73 122 -2 2 -15 -15 -29 -39z"/>
<path d="M3150 3794 c36 -8 72 -13 80 -11 20 4 -84 27 -118 26 -15 -1 2 -7 38
-15z"/>
<path d="M3290 3765 c40 -15 85 -20 60 -6 -8 5 -33 11 -55 14 l-40 6 35 -14z"/>
<path d="M3813 3705 c0 -33 2 -45 4 -27 2 18 2 45 0 60 -2 15 -4 0 -4 -33z"/>
<path d="M1110 3737 c0 -4 9 -16 20 -27 11 -11 20 -16 20 -12 0 5 -9 17 -20
27 -11 10 -20 15 -20 12z"/>
<path d="M4856 3699 c-8 -42 0 -50 9 -9 4 17 5 34 2 36 -2 3 -7 -10 -11 -27z"/>
<path d="M924 3674 c-9 -21 -34 -74 -56 -117 -21 -44 -35 -77 -31 -74 14 9
116 218 109 224 -3 3 -13 -11 -22 -33z"/>
<path d="M0 1853 l0 -1853 280 0 c191 0 280 3 280 11 0 6 -8 31 -19 57 -37 93
-73 222 -67 238 6 16 75 113 241 339 50 68 118 163 152 211 34 49 112 148 173
219 61 72 122 143 135 158 14 16 29 26 35 22 5 -3 11 2 11 12 1 10 5 -4 10
-32 9 -54 23 -285 44 -725 l13 -275 -5 320 c-2 176 -9 394 -15 485 -6 91 -14
480 -17 865 -4 385 -8 685 -9 668 -1 -18 -5 -33 -9 -33 -5 0 -37 9 -71 20 -35
11 -79 20 -98 20 -113 0 -174 85 -204 285 -6 39 -20 126 -31 195 -11 69 -25
157 -30 195 -6 39 -13 72 -16 75 -8 7 5 -110 27 -235 11 -60 26 -162 34 -225
17 -127 28 -167 63 -222 30 -49 54 -63 138 -83 199 -48 183 -24 177 -258 -3
-153 -7 -187 -18 -183 -7 3 -20 -1 -28 -9 -12 -12 -13 -7 -10 34 2 37 -1 51
-12 55 -8 3 -12 1 -9 -4 3 -6 0 -19 -8 -31 -14 -19 -17 -16 -46 63 -56 147
-126 293 -172 359 -10 14 -49 89 -87 165 -104 212 -129 290 -176 570 -21 130
-41 214 -55 242 -19 38 -25 42 -59 42 -29 0 -45 -7 -65 -28 -43 -45 -99 -242
-99 -348 0 -13 -3 -24 -7 -24 -3 0 -24 25 -46 56 -55 75 -180 238 -240 313
-27 35 -58 77 -67 94 -16 30 -17 -68 -18 -1820z m1220 166 c0 -51 -4 -78 -10
-74 -5 3 -10 2 -10 -4 0 -5 4 -12 9 -16 5 -3 9 -19 9 -35 -1 -17 -3 -29 -5
-27 -9 10 -50 177 -43 177 5 0 10 -3 13 -7 4 -9 2 2 -7 37 -7 23 -6 24 8 7 14
-18 14 -18 21 2 11 37 15 23 15 -60z"/>
<path d="M1192 1990 c0 -14 2 -19 5 -12 2 6 2 18 0 25 -3 6 -5 1 -5 -13z"/>
<path d="M3726 3664 c-4 -20 -5 -38 -3 -40 3 -3 8 11 11 32 4 20 5 38 3 40 -3
3 -8 -11 -11 -32z"/>
<path d="M3921 3627 c-14 -80 -14 -98 -1 -77 14 22 18 2 24 -140 4 -69 11
-141 16 -160 9 -34 9 -33 5 10 -2 25 -7 132 -11 238 -4 105 -10 192 -14 192
-5 0 -13 -28 -19 -63z"/>
<path d="M1160 3671 c0 -6 4 -13 10 -16 6 -3 7 1 4 9 -7 18 -14 21 -14 7z"/>
<path d="M4837 3636 c-4 -10 -7 -25 -6 -34 0 -11 4 -9 10 7 5 13 8 29 6 35 -2
5 -6 2 -10 -8z"/>
<path d="M1186 3626 c3 -8 23 -49 45 -91 21 -43 39 -79 39 -81 0 -1 -22 0 -49
3 -97 11 -164 -37 -200 -144 -29 -87 -27 -161 6 -237 27 -62 94 -156 167 -234
22 -24 46 -55 52 -70 l12 -27 1 36 c1 28 -5 40 -29 57 -30 22 -140 153 -140
167 0 4 -9 19 -19 34 -11 14 -27 53 -36 85 -21 72 -14 137 22 218 21 47 32 59
64 72 43 17 78 20 129 9 l33 -6 -7 -74 c-4 -52 -12 -82 -25 -99 -25 -31 -47
-132 -33 -146 7 -7 15 6 24 38 14 46 14 40 12 -116 -2 -115 0 -151 6 -120 5
25 9 72 9 105 1 72 17 239 36 391 18 135 19 193 1 119 l-11 -50 -24 40 c-42
70 -84 135 -87 135 -2 0 -1 -7 2 -14z"/>
<path d="M3812 3615 c-1 -16 5 -82 13 -145 l13 -115 -5 113 c-3 62 -9 127 -13
145 l-8 32 0 -30z"/>
<path d="M3702 3560 c-7 -30 -15 -66 -19 -80 -6 -22 -5 -23 10 -12 17 14 31
82 25 123 -2 17 -7 7 -16 -31z"/>
<path d="M4811 3534 c0 -11 3 -14 6 -6 3 7 2 16 -1 19 -3 4 -6 -2 -5 -13z"/>
<path d="M3902 3505 c0 -16 2 -22 5 -12 2 9 2 23 0 30 -3 6 -5 -1 -5 -18z"/>
<path d="M810 3446 c-15 -39 -12 -46 6 -13 9 16 13 31 10 34 -3 3 -10 -6 -16
-21z"/>
<path d="M3891 3444 c0 -11 3 -14 6 -6 3 7 2 16 -1 19 -3 4 -6 -2 -5 -13z"/>
<path d="M4762 3370 c-6 -24 -9 -46 -7 -48 6 -6 27 68 23 80 -3 7 -10 -8 -16
-32z"/>
<path d="M3182 3357 c2 -26 6 -47 11 -47 7 0 -2 80 -10 90 -2 2 -3 -17 -1 -43z"/>
<path d="M3877 3339 c-3 -23 -11 -45 -17 -49 -8 -5 -10 -21 -5 -50 10 -60 22
-38 30 58 7 85 2 113 -8 41z"/>
<path d="M3841 3324 c0 -11 3 -14 6 -6 3 7 2 16 -1 19 -3 4 -6 -2 -5 -13z"/>
<path d="M4732 3280 c-5 -14 -25 -65 -45 -115 -19 -49 -53 -132 -76 -183 -44
-101 -45 -102 -33 -102 5 0 16 16 25 35 17 36 43 46 53 21 3 -8 -5 -55 -19
-103 -27 -95 -42 -172 -33 -162 19 18 96 339 110 452 8 71 20 135 27 143 6 7
9 19 6 26 -3 8 -9 3 -15 -12z m-48 -234 c-6 -52 -24 -80 -40 -63 -6 6 11 68
28 104 16 33 19 23 12 -41z"/>
<path d="M4392 3250 c0 -19 2 -27 5 -17 2 9 2 25 0 35 -3 9 -5 1 -5 -18z"/>
<path d="M4991 3244 c0 -11 3 -14 6 -6 3 7 2 16 -1 19 -3 4 -6 -2 -5 -13z"/>
<path d="M3972 3190 c0 -14 2 -19 5 -12 2 6 2 18 0 25 -3 6 -5 1 -5 -13z"/>
<path d="M4377 3168 c-12 -64 -20 -143 -14 -138 7 6 29 162 23 167 -2 2 -6
-11 -9 -29z"/>
<path d="M4962 3163 c-5 -10 -12 -38 -16 -63 -8 -49 -80 -236 -101 -260 -7 -8
-23 -35 -35 -60 -34 -68 -104 -180 -112 -180 -5 0 -6 11 -2 25 9 37 -5 31 -60
-25 -27 -28 -57 -50 -66 -50 -15 0 -30 -18 -30 -36 0 -16 46 14 83 54 37 40
45 21 20 -43 -6 -16 -5 -17 20 -1 25 17 113 143 152 219 22 41 30 45 44 19 18
-33 -71 -292 -101 -292 -4 0 -8 -4 -8 -9 0 -5 -13 -31 -29 -58 -126 -212 -156
-267 -201 -368 -81 -184 -160 -403 -160 -449 0 -10 -7 -39 -15 -65 -8 -25 -25
-79 -37 -119 -14 -51 -39 -99 -80 -157 -83 -120 -335 -369 -548 -542 -41 -34
-133 -118 -205 -187 -71 -70 -139 -129 -151 -132 -50 -13 -243 51 -429 142
-204 100 -257 117 -385 122 l-105 4 -57 -58 c-78 -81 -156 -177 -208 -254 -25
-36 -46 -67 -48 -70 -4 -6 -91 42 -107 60 -10 11 -11 30 -4 80 22 164 60 429
69 470 5 25 16 115 25 200 9 85 22 199 30 252 15 97 19 155 10 147 -4 -4 -145
-980 -160 -1109 -4 -30 -13 -93 -20 -140 -20 -127 -28 -230 -17 -230 12 0 17
27 33 170 6 63 15 118 19 123 3 4 42 -18 86 -49 43 -30 95 -64 114 -74 19 -10
46 -29 60 -42 79 -72 140 -106 140 -79 0 12 -137 123 -192 155 -27 15 -50 32
-53 37 -12 19 99 176 207 294 l36 40 6 -50 c11 -88 77 -385 104 -472 12 -37
22 -53 35 -53 21 0 21 6 1 61 -24 69 -66 250 -60 264 2 7 0 17 -5 22 -6 6 -14
35 -19 64 -5 30 -15 85 -22 122 -10 58 -9 70 3 78 21 13 179 2 230 -16 24 -9
60 -21 79 -27 19 -6 65 -26 102 -44 37 -19 74 -34 82 -34 8 0 16 -4 18 -9 5
-14 247 -98 320 -112 36 -7 78 -9 93 -5 17 4 63 42 109 89 45 45 115 112 156
149 41 37 89 81 105 98 17 16 34 30 39 30 5 0 32 21 61 48 29 26 89 81 135
122 105 96 92 82 187 186 156 170 193 245 258 524 21 87 41 151 64 203 11 27
21 53 21 58 0 5 23 57 51 116 28 60 57 122 65 139 7 17 36 69 64 114 27 46 50
87 50 92 0 4 5 8 10 8 6 0 10 -7 10 -15 0 -60 59 59 121 245 23 69 46 136 52
150 6 14 11 36 13 50 1 14 11 72 23 130 27 141 49 274 46 278 -2 2 -8 -5 -13
-15z m-58 -291 c-4 -18 -10 -32 -15 -32 -12 0 -11 14 3 45 15 32 20 27 12 -13z
m-171 -507 c-3 -9 -8 -14 -10 -11 -3 3 -2 9 2 15 9 16 15 13 8 -4z"/>
<path d="M4140 3089 c-7 -11 -10 -23 -7 -25 2 -2 9 7 15 21 14 30 7 33 -8 4z"/>
<path d="M4976 2674 c-26 -67 -105 -226 -156 -313 -40 -67 -48 -103 -15 -70
46 46 203 389 193 420 -2 7 -12 -10 -22 -37z"/>
<path d="M4275 2610 c-3 -5 -1 -10 4 -10 6 0 11 5 11 10 0 6 -2 10 -4 10 -3 0
-8 -4 -11 -10z"/>
<path d="M4235 2569 c-4 -6 -5 -12 -2 -15 2 -3 7 2 10 11 7 17 1 20 -8 4z"/>
<path d="M4300 2569 c0 -7 14 -34 30 -61 17 -26 30 -52 30 -56 1 -12 60 -77
60 -66 0 6 -10 24 -22 41 -13 16 -36 58 -52 92 -28 57 -46 77 -46 50z"/>
<path d="M4170 2438 c0 -7 7 -32 16 -55 12 -32 29 -51 67 -75 28 -18 54 -36
60 -39 15 -11 -80 -192 -135 -255 -71 -81 -90 -109 -37 -53 58 60 83 93 122
158 40 67 54 73 63 27 4 -25 12 -36 24 -36 10 0 20 -7 24 -15 3 -8 12 -12 20
-9 9 3 17 -3 21 -17 7 -21 8 -21 18 -4 9 17 11 17 27 -5 28 -37 40 -16 40 69
l0 78 -95 78 c-52 43 -106 95 -121 116 -15 22 -30 39 -35 39 -4 0 -5 -24 -2
-52 6 -50 5 -52 -12 -38 -10 8 -27 34 -37 58 -19 42 -28 52 -28 30z"/>
<path d="M1101 2344 c0 -11 3 -14 6 -6 3 7 2 16 -1 19 -3 4 -6 -2 -5 -13z"/>
<path d="M1112 2270 c0 -14 2 -19 5 -12 2 6 2 18 0 25 -3 6 -5 1 -5 -13z"/>
<path d="M4591 2054 c0 -11 3 -14 6 -6 3 7 2 16 -1 19 -3 4 -6 -2 -5 -13z"/>
<path d="M4961 1854 c-18 -82 -44 -189 -57 -239 -13 -49 -30 -119 -38 -155 -8
-36 -33 -146 -56 -245 -22 -99 -67 -344 -100 -545 -32 -201 -66 -394 -74 -430
-18 -74 -36 -184 -36 -217 l0 -23 200 0 200 0 0 780 c0 773 0 780 -20 780 -13
0 -20 7 -20 20 0 13 7 20 20 20 21 0 26 23 14 68 -10 34 -22 26 -31 -20 -5
-25 -11 -37 -14 -28 -3 8 0 42 7 75 8 33 16 76 20 95 3 19 10 44 15 55 6 11 9
51 7 89 l-3 69 -34 -149z m-12 -304 c0 -22 -1 -23 -8 -5 -7 17 -9 16 -14 -10
-3 -17 -1 -34 4 -39 6 -6 9 -6 9 2 0 7 5 12 11 12 6 0 0 -15 -13 -32 -26 -35
-53 -134 -43 -160 4 -9 2 -19 -3 -22 -14 -9 -26 69 -14 91 6 10 15 44 21 76
19 103 32 142 42 126 5 -8 8 -25 8 -39z m-82 -262 c-3 -7 -5 -2 -5 12 0 14 2
19 5 13 2 -7 2 -19 0 -25z m1 -43 c-3 -3 -9 2 -12 12 -6 14 -5 15 5 6 7 -7 10
-15 7 -18z m-8 -29 c0 -8 -4 -18 -10 -21 -5 -3 -10 3 -10 14 0 12 5 21 10 21
6 0 10 -6 10 -14z m-6 -102 c4 -15 5 -29 1 -32 -3 -3 -5 2 -5 11 0 22 -17 22
-23 0 -3 -12 -5 -9 -6 8 -2 45 23 54 33 13z m-37 -90 c-2 -13 0 -25 6 -27 5
-1 3 -16 -7 -34 -9 -18 -16 -41 -16 -53 0 -11 -5 -20 -11 -20 -5 0 -8 -4 -5
-8 3 -5 7 -30 9 -58 3 -27 3 -41 0 -31 -2 9 -9 17 -15 17 -6 0 -8 -9 -3 -22
15 -49 15 -71 0 -33 -16 41 -13 118 6 141 10 12 15 51 18 127 1 25 5 36 12 31
6 -3 9 -17 6 -30z m-60 -311 c-3 -10 -5 -2 -5 17 0 19 2 27 5 18 2 -10 2 -26
0 -35z m30 -45 c-3 -8 -6 -5 -6 6 -1 11 2 17 5 13 3 -3 4 -12 1 -19z m-43 -32
c-3 -21 -8 -35 -11 -32 -2 2 -1 20 3 40 3 21 8 35 11 32 2 -2 1 -20 -3 -40z
m-18 -143 c-9 -26 -16 -56 -16 -66 0 -11 -3 -17 -6 -14 -4 4 2 46 12 94 13 58
20 78 22 60 2 -16 -4 -49 -12 -74z m-49 -305 c-3 -7 -5 -2 -5 12 0 14 2 19 5
13 2 -7 2 -19 0 -25z"/>
<path d="M2900 1971 c0 -6 4 -13 10 -16 6 -3 7 1 4 9 -7 18 -14 21 -14 7z"/>
<path d="M2175 1905 c-3 -31 -5 -59 -2 -61 3 -3 8 20 12 51 3 31 5 59 2 61 -3
3 -8 -20 -12 -51z"/>
<path d="M2961 1893 c77 -84 214 -201 224 -191 3 2 -19 22 -47 44 -29 21 -88
74 -132 117 -44 42 -82 77 -85 77 -2 0 16 -21 40 -47z"/>
<path d="M2163 1785 c0 -22 2 -30 4 -17 2 12 2 30 0 40 -3 9 -5 -1 -4 -23z"/>
<path d="M4992 1775 c0 -16 2 -22 5 -12 2 9 2 23 0 30 -3 6 -5 -1 -5 -18z"/>
<path d="M2131 1607 c-11 -65 -14 -114 -7 -106 6 6 27 161 22 166 -2 2 -9 -25
-15 -60z"/>
<path d="M3585 1405 c78 -65 104 -81 50 -31 -33 30 -64 56 -70 56 -5 0 4 -11
20 -25z"/>
<path d="M4060 940 c0 -5 5 -10 11 -10 5 0 7 5 4 10 -3 6 -8 10 -11 10 -2 0
-4 -4 -4 -10z"/>
<path d="M3999 918 c-1 -7 -1 -19 0 -25 1 -7 -3 -13 -9 -13 -6 0 -8 -4 -5 -10
7 -11 -16 -120 -25 -115 -3 2 -6 -15 -6 -37 -2 -58 -37 -248 -46 -248 -4 0 -8
-7 -8 -15 0 -8 -4 -15 -10 -15 -5 0 -10 -10 -10 -22 0 -19 2 -20 11 -8 9 13 7
-56 -5 -130 -1 -8 -6 -48 -11 -88 -4 -41 -11 -69 -15 -62 -4 6 -7 -20 -7 -59
l0 -71 92 0 92 0 7 77 c3 42 6 111 6 154 0 73 13 112 23 72 4 -15 5 -15 6 2 0
11 -4 27 -9 35 -6 10 -10 11 -10 3 0 -7 -4 -13 -10 -13 -6 0 -10 98 -11 273
-1 149 -4 283 -8 296 -7 27 -30 41 -32 19z m-2 -440 c-3 -7 -5 -2 -5 12 0 14
2 19 5 13 2 -7 2 -19 0 -25z m0 -280 c-2 -13 -4 -5 -4 17 -1 22 1 32 4 23 2
-10 2 -28 0 -40z"/>
<path d="M3955 830 c3 -5 8 -10 11 -10 2 0 4 5 4 10 0 6 -5 10 -11 10 -5 0 -7
-4 -4 -10z"/>
<path d="M4057 763 c8 -50 13 -55 13 -10 0 20 -4 38 -9 42 -6 3 -7 -10 -4 -32z"/>
<path d="M3928 702 c-3 -9 -1 -26 3 -37 6 -15 8 -11 8 18 1 40 -4 48 -11 19z"/>
<path d="M3912 620 c0 -14 2 -19 5 -12 2 6 2 18 0 25 -3 6 -5 1 -5 -13z"/>
<path d="M4051 594 c0 -11 3 -14 6 -6 3 7 2 16 -1 19 -3 4 -6 -2 -5 -13z"/>
<path d="M4073 560 c0 -25 2 -35 4 -22 2 12 2 32 0 45 -2 12 -4 2 -4 -23z"/>
<path d="M4110 535 c0 -8 4 -15 10 -15 5 0 7 7 4 15 -4 8 -8 15 -10 15 -2 0
-4 -7 -4 -15z"/>
<path d="M3877 510 c3 -11 7 -20 8 -20 1 0 5 9 8 20 3 12 0 20 -8 20 -8 0 -11
-8 -8 -20z"/>
<path d="M3855 439 c-4 -6 -5 -12 -2 -15 2 -3 7 2 10 11 7 17 1 20 -8 4z"/>
<path d="M3841 344 c0 -11 3 -14 6 -6 3 7 2 16 -1 19 -3 4 -6 -2 -5 -13z"/>
<path d="M4590 296 c0 -8 4 -17 9 -20 5 -4 7 3 4 14 -6 23 -13 26 -13 6z"/>
<path d="M3852 268 c-7 -7 -12 -27 -12 -45 0 -48 25 -32 27 17 1 45 1 44 -15
28z"/>
<path d="M4066 264 c-9 -24 -7 -54 4 -54 6 0 10 16 10 35 0 38 -4 44 -14 19z"/>
<path d="M4572 250 c0 -19 2 -27 5 -17 2 9 2 25 0 35 -3 9 -5 1 -5 -18z"/>
<path d="M4072 180 c0 -14 2 -19 5 -12 2 6 2 18 0 25 -3 6 -5 1 -5 -13z"/>
<path d="M2542 140 c0 -14 2 -19 5 -12 2 6 2 18 0 25 -3 6 -5 1 -5 -13z"/>
<path d="M1293 60 c0 -36 2 -50 4 -32 2 17 2 47 0 65 -2 17 -4 3 -4 -33z"/>
<path d="M4572 20 c0 -14 2 -19 5 -12 2 6 2 18 0 25 -3 6 -5 1 -5 -13z"/>
</g>
</svg>
